<svg xmlns="http://www.w3.org/2000/svg" xmlns:xlink="http://www.w3.org/1999/xlink" width="32" height="32" class="icon" p-id="7736" t="1522504449067" version="1.1" viewBox="0 0 1024 1024"><defs><style type="text/css"/></defs><path fill="#fff" d="M255.842 393.35h134.9l82.277-112.491h-217.18c-97.334 0-176.539 79.203-176.539 176.534v102.262c0 97.334 79.205 176.535 176.539 176.535h217.18l-84.036-112.491h-133.143c-35.318 0-64.046-28.727-64.046-64.046v-102.262c-0.001-35.318 28.726-64.045 64.046-64.045v0z" p-id="7737"/><path fill="#fff" d="M760.953 280.861h-217.184l82.277 112.491h134.901c35.321 0 64.046 28.726 64.046 64.045v102.262c0 35.318-28.726 64.046-64.046 64.046h-133.148l-84.036 112.491h217.184c97.329 0 176.535-79.205 176.535-176.535v-102.262c0-97.334-79.206-176.534-176.535-176.534v0z" p-id="7738"/><path fill="#fff" d="M481.317 75.837h54.159v137.151h-54.159v-137.151z" p-id="7739"/><path fill="#fff" d="M695.484 160.977l-38.286-38.286-110.899 91.173 38.282 38.286 110.901-91.173z" p-id="7740"/><path fill="#fff" d="M470.496 213.863l-110.899-91.173-38.282 38.286 110.897 91.173 38.285-38.286z" p-id="7741"/><path fill="#fff" d="M481.317 804.945h54.159v137.147h-54.159v-137.147z" p-id="7742"/><path fill="#fff" d="M546.297 804.067l110.899 91.174 38.286-38.286-110.901-91.173-38.282 38.285z" p-id="7743"/><path fill="#fff" d="M321.314 856.957l38.282 38.286 110.899-91.174-38.285-38.285-110.897 91.173z" p-id="7744"/></svg>