<svg xmlns="http://www.w3.org/2000/svg" xmlns:xlink="http://www.w3.org/1999/xlink" width="32" height="32" class="icon" p-id="7318" t="1522504386323" version="1.1" viewBox="0 0 1024 1024"><defs><style type="text/css"/></defs><path fill="#fff" d="M780.8 480 544 480 544 243.2C544 217.6 524.8 192 492.8 192 467.2 192 448 217.6 448 243.2l0 288c0 25.6 19.2 51.2 51.2 51.2l288 0c25.6 0 51.2-19.2 51.2-51.2C832 505.6 806.4 480 780.8 480L780.8 480z" p-id="7319"/><path fill="#fff" d="M550.4 1024l-6.4-51.2c96-6.4 192-44.8 262.4-108.8l32 38.4C755.2 972.8 659.2 1017.6 550.4 1024L550.4 1024zM422.4 1017.6c-108.8-19.2-204.8-70.4-275.2-147.2L179.2 832c70.4 70.4 153.6 115.2 249.6 134.4L422.4 1017.6 422.4 1017.6zM928 812.8l-38.4-25.6c57.6-76.8 89.6-172.8 89.6-268.8 0-25.6 0-51.2-6.4-76.8L1024 435.2c0 19.2 0 51.2 0 76.8C1024 620.8 992 723.2 928 812.8L928 812.8zM64 768c-44.8-76.8-64-166.4-64-256 0-19.2 0-38.4 0-57.6l51.2 6.4c0 19.2 0 32 0 51.2 0 83.2 19.2 160 57.6 230.4L64 768 64 768zM76.8 352 32 332.8c38.4-102.4 108.8-185.6 198.4-249.6L256 128C172.8 179.2 108.8 262.4 76.8 352L76.8 352zM934.4 326.4C896 236.8 832 160 748.8 115.2l25.6-44.8c89.6 57.6 166.4 140.8 211.2 236.8L934.4 326.4 934.4 326.4zM358.4 76.8 339.2 32c102.4-38.4 211.2-38.4 313.6-6.4L640 70.4C550.4 38.4 448 44.8 358.4 76.8L358.4 76.8z" p-id="7320"/></svg>