<?xml version="1.0" standalone="no"?><!DOCTYPE svg PUBLIC "-//W3C//DTD SVG 1.1//EN" "http://www.w3.org/Graphics/SVG/1.1/DTD/svg11.dtd"><svg t="1548837691928" class="icon" style="" viewBox="0 0 1024 1024" version="1.1" xmlns="http://www.w3.org/2000/svg" p-id="3973" xmlns:xlink="http://www.w3.org/1999/xlink" width="200" height="200"><defs><style type="text/css"></style></defs><path d="M988.8 512c0-265.6-214.4-480-476.8-480C246.4 32 32 246.4 32 512s214.4 480 476.8 480c265.6 0 480-214.4 480-480z m-67.2-32h-188.8c-6.4-140.8-54.4-272-140.8-374.4 179.2 35.2 316.8 188.8 329.6 374.4zM352 480c6.4-144 64-272 160-371.2 96 99.2 150.4 227.2 160 371.2H352z m316.8 64c-6.4 144-64 272-160 371.2-96-99.2-150.4-227.2-160-371.2h320zM428.8 105.6C342.4 208 294.4 339.2 288 480H99.2C112 294.4 249.6 140.8 428.8 105.6zM99.2 544H288c6.4 140.8 54.4 272 140.8 374.4C249.6 883.2 112 729.6 99.2 544z m492.8 374.4c86.4-105.6 134.4-233.6 140.8-374.4h188.8c-12.8 185.6-150.4 339.2-329.6 374.4z" fill="#212121" p-id="3974"></path></svg>