<?xml version="1.0" standalone="no"?><!DOCTYPE svg PUBLIC "-//W3C//DTD SVG 1.1//EN" "http://www.w3.org/Graphics/SVG/1.1/DTD/svg11.dtd"><svg t="1522440305384" class="icon" style="" viewBox="0 0 1024 1024" version="1.1" xmlns="http://www.w3.org/2000/svg" p-id="2989" xmlns:xlink="http://www.w3.org/1999/xlink" width="32" height="32"><defs><style type="text/css"></style></defs><path d="M512 0C229.003636 0 0 229.003636 0 512s229.003636 512 512 512 512-229.003636 512-512S794.996364 0 512 0z m2.792727 791.272727c-33.512727 0-61.44-26.996364-61.44-59.578182 0-32.581818 26.996364-59.578182 61.44-59.578181 33.512727 0 61.44 26.996364 61.44 59.578181 0 33.512727-27.927273 59.578182-61.44 59.578182z m58.647273-352.814545c-10.24 82.850909-27.927273 151.738182-42.821818 174.08-2.792727 6.516364-9.309091 11.170909-16.756364 11.170909-8.378182 0-14.894545-5.585455-16.756363-13.032727-13.963636-23.272727-30.72-91.229091-40.96-172.218182-7.447273-56.785455-9.309091-108.916364-7.447273-143.36 0-2.792727-0.930909-6.516364-0.930909-9.309091 0-35.374545 29.789091-64.232727 66.094545-64.232727 23.272727 0 43.752727 12.101818 55.854546 29.789091 2.792727 1.861818 4.654545 5.585455 6.516363 12.101818 2.792727 7.447273 3.723636 14.894545 3.723637 22.341818v4.654545c3.723636 35.374545 0.930909 88.436364-6.516364 148.014546z" p-id="2990" fill="#ffffff"></path></svg>